<svg width="14" height="22" viewBox="0 0 14 22" fill="none" xmlns="http://www.w3.org/2000/svg">
<path d="M8.63899 0.899222V0.9H8.73684H8.79555C8.91051 0.9 9.02492 0.917987 9.13848 0.953476C9.24947 0.988159 9.35398 1.0334 9.45181 1.0893C9.55221 1.14667 9.64186 1.21842 9.72053 1.30425C9.79726 1.38795 9.86364 1.47877 9.91955 1.57661C9.97546 1.67444 10.0207 1.77895 10.0554 1.88994C10.0912 2.00465 10.1089 2.12566 10.1089 2.25245C10.1089 2.30876 10.1053 2.36245 10.0981 2.41336C10.0911 2.46212 10.0808 2.51355 10.0674 2.56755L8.95579 8.3364H12.455C12.7248 8.3364 12.9637 8.39708 13.1678 8.52241C13.3719 8.64771 13.5351 8.83393 13.6594 9.0756C13.7838 9.31745 13.8398 9.55917 13.8219 9.79903C13.804 10.0387 13.7129 10.2694 13.5543 10.4903C13.5541 10.4905 13.554 10.4907 13.5539 10.4908L6.52919 20.5485L6.52656 20.5522L6.52647 20.5522C6.24944 20.9123 5.90206 21.1 5.48831 21.1C5.39222 21.1 5.29906 21.0931 5.20891 21.0793C5.11431 21.0647 5.02344 21.0357 4.93662 20.9925C4.6567 20.8661 4.43916 20.6655 4.28575 20.3936C4.13086 20.119 4.08116 19.8247 4.13739 19.5149C4.13741 19.5147 4.13744 19.5146 4.13747 19.5144L5.2719 12.9193L1.77011 12.9004C1.77004 12.9004 1.76998 12.9004 1.76992 12.9004L1.76957 12.9004L1.77011 12.8004C1.67878 12.8004 1.58746 12.7906 1.49613 12.771C1.40481 12.7515 1.31675 12.7221 1.23195 12.683C1.14714 12.6438 1.06887 12.5949 0.997112 12.5362C0.925358 12.4775 0.860126 12.4123 0.801418 12.3405C0.742709 12.2688 0.693785 12.1937 0.654647 12.1155L8.63899 0.899222ZM8.63899 0.899222L8.62659 0.900772C8.51531 0.914682 8.41488 0.939382 8.32656 0.976185C8.24055 1.01202 8.14668 1.06451 8.04536 1.13206C7.94069 1.20184 7.84655 1.28536 7.76303 1.38233C7.74546 1.40037 7.72961 1.42099 7.71785 1.44452C7.71721 1.44579 7.71459 1.4503 7.70722 1.45767L7.70655 1.45699L7.69822 1.468L0.672777 10.7439L0.672752 10.7439L0.671292 10.7459C0.512402 10.967 0.42116 11.1979 0.40326 11.4378C0.385373 11.6775 0.441256 11.919 0.565448 12.1607L8.63899 0.899222ZM7.32745 9.76928L12.2646 9.78812L5.66388 19.3184L6.99585 11.6041L7.01598 11.4875L6.89769 11.4871L1.9692 11.4683L8.55787 2.65871L7.22959 9.65061L7.20714 9.76882L7.32745 9.76928Z" fill="#15132E" stroke="black" stroke-width="0.2"/>
</svg>
