<svg width="25" height="24" viewBox="0 0 25 24" fill="none" xmlns="http://www.w3.org/2000/svg">
<path d="M13.639 1.89922V1.9H13.7368H13.7955C13.9105 1.9 14.0249 1.91799 14.1385 1.95348C14.2495 1.98816 14.354 2.0334 14.4518 2.0893C14.5522 2.14667 14.6419 2.21842 14.7205 2.30425C14.7973 2.38795 14.8636 2.47877 14.9196 2.57661C14.9755 2.67444 15.0207 2.77895 15.0554 2.88994C15.0912 3.00465 15.1089 3.12566 15.1089 3.25245C15.1089 3.30876 15.1053 3.36245 15.0981 3.41336C15.0911 3.46212 15.0808 3.51355 15.0674 3.56755L13.9558 9.3364H17.455C17.7248 9.3364 17.9637 9.39708 18.1678 9.52241C18.3719 9.64771 18.5351 9.83393 18.6594 10.0756C18.7838 10.3174 18.8398 10.5592 18.8219 10.799C18.804 11.0387 18.7129 11.2694 18.5543 11.4903C18.5541 11.4905 18.554 11.4907 18.5539 11.4908L11.5292 21.5485L11.5266 21.5522L11.5265 21.5522C11.2494 21.9123 10.9021 22.1 10.4883 22.1C10.3922 22.1 10.2991 22.0931 10.2089 22.0793C10.1143 22.0647 10.0234 22.0357 9.93661 21.9925C9.6567 21.8661 9.43916 21.6655 9.28575 21.3936C9.13086 21.119 9.08116 20.8247 9.13739 20.5149C9.13741 20.5147 9.13744 20.5146 9.13747 20.5144L10.2719 13.9193L6.77011 13.9004C6.77004 13.9004 6.76998 13.9004 6.76992 13.9004L6.76957 13.9004L6.77011 13.8004C6.67878 13.8004 6.58746 13.7906 6.49613 13.771C6.40481 13.7515 6.31675 13.7221 6.23195 13.683C6.14714 13.6438 6.06887 13.5949 5.99711 13.5362C5.92536 13.4775 5.86013 13.4123 5.80142 13.3405C5.74271 13.2688 5.69379 13.1937 5.65465 13.1155L13.639 1.89922ZM13.639 1.89922L13.6266 1.90077C13.5153 1.91468 13.4149 1.93938 13.3266 1.97619C13.2405 2.01202 13.1467 2.06451 13.0454 2.13206C12.9407 2.20184 12.8466 2.28536 12.763 2.38233C12.7455 2.40037 12.7296 2.42099 12.7178 2.44452C12.7172 2.44579 12.7146 2.4503 12.7072 2.45767L12.7066 2.45699L12.6982 2.468L5.67278 11.7439L5.67275 11.7439L5.67129 11.7459C5.5124 11.967 5.42116 12.1979 5.40326 12.4378C5.38537 12.6775 5.44126 12.919 5.56545 13.1607L13.639 1.89922ZM12.3275 10.7693L17.2646 10.7881L10.6639 20.3184L11.9958 12.6041L12.016 12.4875L11.8977 12.4871L6.9692 12.4683L13.5579 3.65871L12.2296 10.6506L12.2071 10.7688L12.3275 10.7693Z" fill="#15132E" stroke="black" stroke-width="0.2"/>
</svg>
